<mxfile host="app.diagrams.net" modified="2023-04-15T23:34:45.793Z" agent="Mozilla/5.0 (Windows NT 10.0; Win64; x64) AppleWebKit/537.36 (KHTML, like Gecko) Chrome/111.0.0.0 Safari/537.36" etag="Fz4IBqjoehVpIfFMNcxp" version="21.1.7" type="github">
  <diagram name="Page-1" id="c4acf3e9-155e-7222-9cf6-157b1a14988f">
    <mxGraphModel dx="1398" dy="1680" grid="1" gridSize="10" guides="1" tooltips="1" connect="1" arrows="1" fold="1" page="1" pageScale="1" pageWidth="850" pageHeight="1100" background="none" math="0" shadow="0">
      <root>
        <mxCell id="0" />
        <mxCell id="1" parent="0" />
        <mxCell id="17acba5748e5396b-1" value="frame" style="shape=umlFrame;whiteSpace=wrap;html=1;rounded=0;shadow=0;comic=0;labelBackgroundColor=none;strokeWidth=1;fontFamily=Verdana;fontSize=10;align=center;" parent="1" vertex="1">
          <mxGeometry x="20" y="20" width="820" height="1060" as="geometry" />
        </mxCell>
        <mxCell id="oT-GYMqdNJhGEarMaolg-10" style="edgeStyle=orthogonalEdgeStyle;rounded=0;orthogonalLoop=1;jettySize=auto;html=1;exitX=0.25;exitY=0;exitDx=0;exitDy=0;" edge="1" parent="1" source="17acba5748e5396b-2" target="17acba5748e5396b-21">
          <mxGeometry relative="1" as="geometry">
            <Array as="points">
              <mxPoint x="630" y="810" />
              <mxPoint x="630" y="418" />
            </Array>
          </mxGeometry>
        </mxCell>
        <mxCell id="17acba5748e5396b-2" value="Admin&lt;br&gt;&lt;b&gt;Class&lt;/b&gt;" style="swimlane;html=1;fontStyle=0;childLayout=stackLayout;horizontal=1;startSize=26;fillColor=none;horizontalStack=0;resizeParent=1;resizeLast=0;collapsible=1;marginBottom=0;swimlaneFillColor=#ffffff;rounded=0;shadow=0;comic=0;labelBackgroundColor=none;strokeWidth=1;fontFamily=Verdana;fontSize=10;align=center;" parent="1" vertex="1">
          <mxGeometry x="370" y="810" width="440" height="260" as="geometry" />
        </mxCell>
        <mxCell id="17acba5748e5396b-3" value="+ Admin(String, int)&lt;br&gt;+ Admin()&lt;br&gt;_________________________________________________________________&lt;br&gt;+ (field) name: String&lt;br&gt;+ (field) adminID: int&lt;br&gt;_________________________________________________________________&lt;br&gt;+ getName(): String&lt;br&gt;+ setName(String): void&lt;br&gt;+ getAdminId(): Int&lt;br&gt;+ setAdminId(Int): void&lt;br&gt;_________________________________________________________________&lt;br&gt;+ (method) cashOut(ArrayList&amp;lt;VendingMachine&amp;gt;, String): String&lt;br style=&quot;border-color: var(--border-color);&quot;&gt;+ (method) restock(ArrayList&amp;lt;VendingMachine&amp;gt;, String, Item): void&lt;br style=&quot;border-color: var(--border-color);&quot;&gt;+ (method) addItem(ArrayList&amp;lt;VendingMachine&amp;gt;&amp;lt; String, Item: void&lt;br style=&quot;border-color: var(--border-color);&quot;&gt;+ (method) selectItem(ArrayList&amp;lt;VendingMachine&amp;gt;, String, Item, double: Item" style="text;html=1;strokeColor=none;fillColor=none;align=left;verticalAlign=top;spacingLeft=4;spacingRight=4;whiteSpace=wrap;overflow=hidden;rotatable=0;points=[[0,0.5],[1,0.5]];portConstraint=eastwest;" parent="17acba5748e5396b-2" vertex="1">
          <mxGeometry y="26" width="440" height="234" as="geometry" />
        </mxCell>
        <mxCell id="oT-GYMqdNJhGEarMaolg-6" style="edgeStyle=orthogonalEdgeStyle;rounded=0;orthogonalLoop=1;jettySize=auto;html=1;exitX=0.94;exitY=-0.001;exitDx=0;exitDy=0;entryX=-0.002;entryY=0.162;entryDx=0;entryDy=0;entryPerimeter=0;exitPerimeter=0;" edge="1" parent="1" source="17acba5748e5396b-20" target="17acba5748e5396b-31">
          <mxGeometry relative="1" as="geometry" />
        </mxCell>
        <mxCell id="17acba5748e5396b-20" value="VendingMachine&lt;br&gt;&lt;b&gt;Class&lt;/b&gt;" style="swimlane;html=1;fontStyle=0;childLayout=stackLayout;horizontal=1;startSize=26;fillColor=none;horizontalStack=0;resizeParent=1;resizeLast=0;collapsible=1;marginBottom=0;swimlaneFillColor=#ffffff;rounded=0;shadow=0;comic=0;labelBackgroundColor=none;strokeWidth=1;fontFamily=Verdana;fontSize=10;align=center;" parent="1" vertex="1">
          <mxGeometry x="100" y="290" width="430" height="240" as="geometry" />
        </mxCell>
        <mxCell id="17acba5748e5396b-21" value="+ VendingMachine(String, int, double, int, String, ArrayList&amp;lt;Item&amp;gt;)&lt;br&gt;+ VendingMachine()&lt;br&gt;______________________________________________________________&lt;br&gt;+ (field) balance: double&lt;br&gt;+ (field) items: ArrayList&amp;lt;Item&amp;gt;&lt;br&gt;+ (field) vendingId: String&lt;br&gt;+ (field) vendingMachines: ArrayList&amp;lt;VendingMachine&amp;gt;&lt;br&gt;+ (field) coins: double&lt;br&gt;______________________________________________________________&lt;br&gt;+ (method) cashOut(ArrayList&amp;lt;VendingMachine&amp;gt;, String): String&lt;br&gt;+ (method) restock(ArrayList&amp;lt;VendingMachine&amp;gt;, String, Item): void&lt;br&gt;+ (method) addItem(ArrayList&amp;lt;VendingMachine&amp;gt;&amp;lt; String, Item: void&lt;br&gt;+ (method) selectItem(ArrayList&amp;lt;VendingMachine&amp;gt;, String, Item, double: Item" style="text;html=1;strokeColor=none;fillColor=none;align=left;verticalAlign=top;spacingLeft=4;spacingRight=4;whiteSpace=wrap;overflow=hidden;rotatable=0;points=[[0,0.5],[1,0.5]];portConstraint=eastwest;" parent="17acba5748e5396b-20" vertex="1">
          <mxGeometry y="26" width="430" height="204" as="geometry" />
        </mxCell>
        <mxCell id="17acba5748e5396b-30" value="Item&lt;br&gt;&lt;b&gt;Class&lt;/b&gt;" style="swimlane;html=1;fontStyle=0;childLayout=stackLayout;horizontal=1;startSize=26;fillColor=none;horizontalStack=0;resizeParent=1;resizeLast=0;collapsible=1;marginBottom=0;swimlaneFillColor=#ffffff;rounded=0;shadow=0;comic=0;labelBackgroundColor=none;strokeWidth=1;fontFamily=Verdana;fontSize=10;align=center;" parent="1" vertex="1">
          <mxGeometry x="650" y="50" width="170" height="270" as="geometry" />
        </mxCell>
        <mxCell id="17acba5748e5396b-31" value="+ Item(String, int, double, int)&lt;br&gt;+ Item()&lt;br&gt;________________________&lt;br&gt;+ (field) price: double&lt;br&gt;+ (field) quantity: int&lt;br&gt;+ (field) idNum: int&lt;br&gt;+ (field) name: String&lt;br&gt;________________________&lt;br&gt;+ getPrice(): double&lt;br&gt;+ setPrice(double): void&lt;br&gt;+ getQuantity(): int&lt;br&gt;+ setQuantity(int): void&lt;br&gt;+ getIdNum(): int&lt;br&gt;+ setIdNum(int): void&lt;br&gt;+ getName(): String&lt;br&gt;+ setName(String): void" style="text;html=1;strokeColor=none;fillColor=none;align=left;verticalAlign=top;spacingLeft=4;spacingRight=4;whiteSpace=wrap;overflow=hidden;rotatable=0;points=[[0,0.5],[1,0.5]];portConstraint=eastwest;" parent="17acba5748e5396b-30" vertex="1">
          <mxGeometry y="26" width="170" height="244" as="geometry" />
        </mxCell>
        <mxCell id="5d2195bd80daf111-5" value="User&lt;br&gt;&lt;b&gt;Class&lt;/b&gt;" style="swimlane;html=1;fontStyle=0;childLayout=stackLayout;horizontal=1;startSize=26;fillColor=none;horizontalStack=0;resizeParent=1;resizeLast=0;collapsible=1;marginBottom=0;swimlaneFillColor=#ffffff;rounded=0;shadow=0;comic=0;labelBackgroundColor=none;strokeWidth=1;fontFamily=Verdana;fontSize=10;align=center;" parent="1" vertex="1">
          <mxGeometry x="30" y="570" width="440" height="230" as="geometry" />
        </mxCell>
        <mxCell id="5d2195bd80daf111-6" value="+ User(String, double)&lt;br&gt;+ User()&lt;br&gt;_________________________________________________________________&lt;br&gt;+ (field) name: String&lt;br&gt;+ (field) moneyInWallet: double&lt;br&gt;_________________________________________________________________&lt;br&gt;+ getName(): String&lt;br&gt;+ setName(String): void&lt;br&gt;+ getMoneyInWallet(): double&lt;br&gt;+ setMoneyInWallet(double): void&lt;br&gt;_________________________________________________________________&lt;br&gt;+ (method) selectItem(ArrayList&amp;lt;VendingMachine&amp;gt;, String, Item, double): Item" style="text;html=1;strokeColor=none;fillColor=none;align=left;verticalAlign=top;spacingLeft=4;spacingRight=4;whiteSpace=wrap;overflow=hidden;rotatable=0;points=[[0,0.5],[1,0.5]];portConstraint=eastwest;" parent="5d2195bd80daf111-5" vertex="1">
          <mxGeometry y="26" width="440" height="194" as="geometry" />
        </mxCell>
        <mxCell id="5d2195bd80daf111-21" style="edgeStyle=orthogonalEdgeStyle;rounded=0;html=1;labelBackgroundColor=none;startFill=0;endArrow=open;endFill=0;endSize=10;fontFamily=Verdana;fontSize=10;dashed=1;exitX=0.384;exitY=0.007;exitDx=0;exitDy=0;exitPerimeter=0;entryX=0.633;entryY=1.013;entryDx=0;entryDy=0;entryPerimeter=0;" parent="1" source="17acba5748e5396b-20" target="5d2195bd80daf111-18" edge="1">
          <mxGeometry relative="1" as="geometry" />
        </mxCell>
        <mxCell id="5d2195bd80daf111-18" value="&lt;p style=&quot;margin:0px;margin-top:4px;text-align:center;&quot;&gt;&lt;i&gt;&amp;lt;&amp;lt;VendingMachineAccess&amp;gt;&amp;gt;&lt;/i&gt;&lt;br&gt;&lt;b&gt;Interface&lt;/b&gt;&lt;/p&gt;&lt;hr size=&quot;1&quot;&gt;&lt;p style=&quot;margin:0px;margin-left:4px;&quot;&gt;+ selectItem(ArrayList&amp;lt;VendingMachine&amp;gt;, String, Item, double): Item&lt;br&gt;+ restock(ArrayList&amp;lt;VendingMachine&amp;gt;, String, Item): void&lt;/p&gt;&lt;p style=&quot;margin:0px;margin-left:4px;&quot;&gt;+ addItem(ArrayList&amp;lt;VendingMachine&amp;gt;, String, Item): void&lt;/p&gt;&lt;p style=&quot;margin:0px;margin-left:4px;&quot;&gt;+ cashOut(ArrayList&amp;lt;VendingMachine&amp;gt;, String): String&lt;/p&gt;" style="verticalAlign=top;align=left;overflow=fill;fontSize=12;fontFamily=Helvetica;html=1;rounded=0;shadow=0;comic=0;labelBackgroundColor=none;strokeWidth=1" parent="1" vertex="1">
          <mxGeometry x="70" y="50" width="410" height="137" as="geometry" />
        </mxCell>
        <mxCell id="oT-GYMqdNJhGEarMaolg-7" value="" style="endArrow=classic;html=1;rounded=0;exitX=1.002;exitY=0.465;exitDx=0;exitDy=0;exitPerimeter=0;entryX=0.967;entryY=1.039;entryDx=0;entryDy=0;entryPerimeter=0;" edge="1" parent="1" source="5d2195bd80daf111-6" target="17acba5748e5396b-21">
          <mxGeometry width="50" height="50" relative="1" as="geometry">
            <mxPoint x="440" y="580" as="sourcePoint" />
            <mxPoint x="300" y="530" as="targetPoint" />
            <Array as="points">
              <mxPoint x="520" y="693" />
            </Array>
          </mxGeometry>
        </mxCell>
      </root>
    </mxGraphModel>
  </diagram>
</mxfile>
